<svg width="193" height="193" viewBox="0 0 193 193" fill="none" xmlns="http://www.w3.org/2000/svg">
<g clip-path="url(#clip0_305_488)">
<path d="M131.676 50.2735C131.676 65.838 119.224 78.2896 103.66 78.2896H89.9629C74.3984 78.2896 61.9468 65.838 61.9468 50.2735C61.9468 34.7089 74.3984 22.2573 89.9629 22.2573H103.66C118.913 22.2573 131.676 34.7089 131.676 50.2735Z" fill="#00233F"/>
<path d="M121.403 93.854H71.5967V152.999H121.403V93.854Z" fill="#F9BDA0"/>
<path d="M121.403 152.999H96.5001L73.1533 93.854H121.403V152.999Z" fill="#E28F71"/>
<path d="M131.053 61.7912C131.053 89.1847 114.244 114.088 96.5 114.088C78.7565 114.088 61.9468 89.1847 61.9468 61.7912C61.9468 34.3976 78.7565 29.7283 96.5 29.7283C114.244 29.7283 131.053 34.3976 131.053 61.7912Z" fill="#FCCCB9"/>
<path d="M96.5 29.7283C114.244 29.7283 131.053 34.3976 131.053 61.7912C131.053 89.1847 114.244 114.088 96.5 114.088" fill="#F9BDA0"/>
<path d="M108.951 28.4831C108.951 31.9073 106.15 34.7089 102.726 34.7089H93.3869C89.9627 34.7089 87.1611 31.9073 87.1611 28.4831C87.1611 25.0589 89.9627 22.2573 93.3869 22.2573H102.726C106.15 22.2573 108.951 25.0589 108.951 28.4831Z" fill="#00233F"/>
<path d="M130.742 80.78C130.742 83.8929 115.489 121.87 96.5002 121.87C77.5115 121.87 62.2583 83.5816 62.2583 80.78C62.2583 77.9784 77.5115 75.1768 96.5002 75.1768C115.489 75.1768 130.742 77.6671 130.742 80.78Z" fill="#36C9B4"/>
<path d="M96.5 75.1768C115.489 75.1768 130.742 77.6671 130.742 80.78C130.742 83.8929 115.489 121.87 96.5 121.87" fill="#22B2B2"/>
<path d="M103.348 189.109L193 188.175L191.132 161.715L122.648 133.699L96.5 151.131L70.3516 133.699L1.86774 161.715L0 188.175L89.6516 189.109V189.42H96.5H103.348V189.109Z" fill="#36C9B4"/>
<path d="M89.6516 189.109V189.42H96.4999H103.348V189.109L193 188.175L191.132 161.715L122.648 133.699L96.4999 151.131L70.3516 133.699" fill="#22B2B2"/>
<path d="M62.6288 42.0174L106.087 68.7981L119.968 46.274L76.509 19.4933L62.6288 42.0174Z" fill="#F9BDA0"/>
<path d="M102.415 3.57983H90.2742C74.3984 3.57983 61.3242 17.5879 61.3242 33.4637V47.7831V49.6508C62.2581 43.425 74.7097 38.1331 90.2742 38.1331H102.415C117.979 38.1331 129.497 38.7556 130.431 44.9814C130.431 44.3589 130.742 45.9153 130.742 45.604V33.4637C130.742 17.5879 118.602 3.57983 102.415 3.57983Z" fill="#36C9B4"/>
<path d="M90.2744 37.8218H102.415C117.979 37.8218 130.431 42.4911 131.365 48.7169C131.365 48.0944 131.365 48.0944 131.365 47.4718V33.775C131.365 17.8992 118.291 3.57983 102.415 3.57983H90.2744" fill="#22B2B2"/>
<path d="M96.5002 178.836L136.034 139.302L122.649 133.699L96.5002 151.131L70.3518 133.699L56.9663 139.302L96.5002 178.836Z" fill="#149CA3"/>
<path d="M87.963 8.62344C87.1629 7.10176 82.5669 7.94381 77.6976 10.5042C72.8282 13.0646 69.5295 16.3737 70.3296 17.8954C71.1297 19.4171 75.7257 18.575 80.5951 16.0146C85.4644 13.4543 88.7632 10.1451 87.963 8.62344Z" fill="#4EDDC5"/>
<path d="M68.4844 22.88C69.1721 22.88 69.7296 22.3225 69.7296 21.6348C69.7296 20.9471 69.1721 20.3896 68.4844 20.3896C67.7967 20.3896 67.2393 20.9471 67.2393 21.6348C67.2393 22.3225 67.7967 22.88 68.4844 22.88Z" fill="#4EDDC5"/>
<path d="M65.6827 27.5492C66.3703 27.5492 66.9278 26.9917 66.9278 26.304C66.9278 25.6163 66.3703 25.0588 65.6827 25.0588C64.995 25.0588 64.4375 25.6163 64.4375 26.304C64.4375 26.9917 64.995 27.5492 65.6827 27.5492Z" fill="#4EDDC5"/>
<path d="M93.0759 78.6009C93.0759 79.846 80.0017 84.2041 72.8421 85.138C65.6824 86.0718 67.5501 82.6476 67.5501 81.4025C67.5501 80.1573 73.1533 78.6009 80.0017 77.667C87.1614 77.0444 93.0759 77.3557 93.0759 78.6009Z" fill="#4EDDC5"/>
<path d="M5.60352 163.894L56.0325 143.972L70.9745 157.357L51.9858 154.556L5.60352 163.894Z" fill="#4EDDC5"/>
</g>
<defs>
<clipPath id="clip0_305_488">
<rect width="193" height="193" fill="white"/>
</clipPath>
</defs>
</svg>
