<svg width="28" height="26" viewBox="0 0 28 26" fill="none" xmlns="http://www.w3.org/2000/svg">
<path d="M14.3597 21.6273V14.5873H12.9797V12.3873H14.3597V11.0673C14.3597 9.3073 15.2797 7.9873 17.1197 7.9873C18.4551 7.9873 19.4197 8.4273 19.4197 8.4273V10.1873H18.4997C17.513 10.1873 17.1197 10.4091 17.1197 11.0673V12.3873H19.4197L18.9597 14.5873H17.1197V21.6273" stroke="black" stroke-miterlimit="10" stroke-linecap="round"/>
<path d="M6.53971 21.6273H21.2597C22.2758 21.6273 23.0997 20.8393 23.0997 19.8673V5.78734C23.0997 4.81538 22.2758 4.02734 21.2597 4.02734H6.53971C5.52357 4.02734 4.69971 4.81538 4.69971 5.78734V19.8673C4.69971 20.8393 5.52357 21.6273 6.53971 21.6273Z" stroke="black" stroke-width="2" stroke-miterlimit="10" stroke-linecap="round" stroke-linejoin="round"/>
</svg>
