<svg width="26" height="27" viewBox="0 0 26 27" fill="none" xmlns="http://www.w3.org/2000/svg">
<path d="M21.4275 6.56099C21.4275 5.69689 20.7332 4.99917 19.8797 4.99917C19.0261 4.99917 18.3311 5.69689 18.3311 6.56099C18.3311 7.42191 19.0261 8.11963 19.8797 8.11963C20.7332 8.11963 21.4275 7.42191 21.4275 6.56099Z" fill="url(#paint0_linear_571_398)"/>
<path d="M23.49 18.7525C23.4327 20.0201 23.2225 20.7088 23.048 21.1662C22.8136 21.7727 22.534 22.2064 22.0804 22.6612C21.632 23.1161 21.202 23.3975 20.6007 23.6314C20.1472 23.81 19.4618 24.0226 18.2051 24.083C16.8464 24.1434 16.4438 24.1563 12.9984 24.1563C9.55623 24.1563 9.15045 24.1434 7.79178 24.083C6.53506 24.0226 5.85286 23.81 5.3993 23.6314C4.79483 23.3975 4.36807 23.1161 3.91709 22.6612C3.46291 22.2064 3.18329 21.7727 2.95207 21.1662C2.77751 20.7088 2.56415 20.0201 2.50998 18.7525C2.44376 17.3821 2.43163 16.9696 2.43163 13.5016C2.43163 10.0265 2.44376 9.61723 2.50998 8.24685C2.56415 6.97929 2.77751 6.29121 2.95207 5.82989C3.18329 5.22405 3.46291 4.79294 3.91709 4.33808C4.36807 3.88389 4.79483 3.60181 5.3993 3.36541C5.85286 3.18617 6.53506 2.97671 7.79178 2.91633C9.15045 2.85591 9.55623 2.84049 12.9984 2.84049C16.4438 2.84049 16.8464 2.85591 18.2051 2.91633C19.4618 2.97671 20.1472 3.18617 20.6007 3.36541C21.202 3.60181 21.632 3.88389 22.0804 4.33808C22.534 4.79294 22.8136 5.22405 23.048 5.82989C23.2225 6.29121 23.4327 6.97929 23.49 8.24685C23.5531 9.61723 23.5684 10.0265 23.5684 13.5016C23.5684 16.9696 23.5531 17.3821 23.49 18.7525ZM25.8106 8.14021C25.7475 6.75504 25.5309 5.80868 25.2092 4.98443C24.8819 4.12929 24.443 3.40459 23.7245 2.67989C23.0092 1.95841 22.2906 1.51574 21.4428 1.18167C20.6224 0.860422 19.6873 0.639397 18.3133 0.57902C16.9394 0.512188 16.5005 0.499996 12.9984 0.499996C9.49953 0.499996 9.05748 0.512188 7.68352 0.57902C6.31272 0.639397 5.37828 0.860422 4.55405 1.18167C3.70942 1.51574 2.99091 1.95841 2.2756 2.67989C1.5571 3.40459 1.1182 4.12929 0.787613 4.98443C0.469109 5.80868 0.252554 6.75504 0.186292 8.14021C0.126432 9.52601 0.111145 9.96931 0.111145 13.5016C0.111145 17.0307 0.126432 17.4733 0.186292 18.8591C0.252554 20.2417 0.469109 21.1874 0.787613 22.0156C1.1182 22.8675 1.5571 23.5954 2.2756 24.3169C2.99091 25.0384 3.70942 25.4843 4.55405 25.8177C5.37828 26.1389 6.31272 26.3574 7.68352 26.421C9.05748 26.4846 9.49953 26.5 12.9984 26.5C16.5005 26.5 16.9394 26.4846 18.3133 26.421C19.6873 26.3574 20.6224 26.1389 21.4428 25.8177C22.2906 25.4843 23.0092 25.0384 23.7245 24.3169C24.443 23.5954 24.8819 22.8675 25.2092 22.0156C25.5309 21.1874 25.7475 20.2417 25.8106 18.8591C25.8736 17.4733 25.8889 17.0307 25.8889 13.5016C25.8889 9.96931 25.8736 9.52601 25.8106 8.14021Z" fill="url(#paint1_linear_571_398)"/>
<path d="M12.9984 17.8312C10.627 17.8312 8.70266 15.8935 8.70266 13.5016C8.70266 11.1058 10.627 9.16562 12.9984 9.16562C15.3706 9.16562 17.2974 11.1058 17.2974 13.5016C17.2974 15.8935 15.3706 17.8312 12.9984 17.8312ZM12.9984 6.8219C9.34282 6.8219 6.38217 9.81448 6.38217 13.5016C6.38217 17.1855 9.34282 20.1749 12.9984 20.1749C16.654 20.1749 19.6179 17.1855 19.6179 13.5016C19.6179 9.81448 16.654 6.8219 12.9984 6.8219Z" fill="url(#paint2_linear_571_398)"/>
<defs>
<linearGradient id="paint0_linear_571_398" x1="0.34358" y1="26.2311" x2="23.9427" y2="2.83379" gradientUnits="userSpaceOnUse">
<stop stop-color="#FFD521"/>
<stop offset="0.05" stop-color="#FFD521"/>
<stop offset="0.501119" stop-color="#F50000"/>
<stop offset="0.95" stop-color="#B900B4"/>
<stop offset="0.950079" stop-color="#B900B4"/>
<stop offset="1" stop-color="#B900B4"/>
</linearGradient>
<linearGradient id="paint1_linear_571_398" x1="0.343657" y1="26.2636" x2="23.9621" y2="2.84697" gradientUnits="userSpaceOnUse">
<stop stop-color="#FFD521"/>
<stop offset="0.05" stop-color="#FFD521"/>
<stop offset="0.501119" stop-color="#F50000"/>
<stop offset="0.95" stop-color="#B900B4"/>
<stop offset="0.950079" stop-color="#B900B4"/>
<stop offset="1" stop-color="#B900B4"/>
</linearGradient>
<linearGradient id="paint2_linear_571_398" x1="0.349713" y1="26.2642" x2="23.9625" y2="2.85325" gradientUnits="userSpaceOnUse">
<stop stop-color="#FFD521"/>
<stop offset="0.05" stop-color="#FFD521"/>
<stop offset="0.501119" stop-color="#F50000"/>
<stop offset="0.95" stop-color="#B900B4"/>
<stop offset="0.950079" stop-color="#B900B4"/>
<stop offset="1" stop-color="#B900B4"/>
</linearGradient>
</defs>
</svg>
