<svg width="23" height="23" viewBox="0 0 23 23" fill="none" xmlns="http://www.w3.org/2000/svg">
<g clip-path="url(#clip0_189_550)">
<path d="M7.63986 20.4654H15.5599C18.4757 20.4654 20.8399 18.1013 20.8399 15.1854V7.26541C20.8399 4.34953 18.4757 1.98541 15.5599 1.98541H7.63986C4.72398 1.98541 2.35986 4.34953 2.35986 7.26541V15.1854C2.35986 18.1013 4.72398 20.4654 7.63986 20.4654Z" stroke="black" stroke-width="2" stroke-miterlimit="10"/>
<path d="M11.6 6.82538C10.433 6.82538 9.31384 7.28895 8.48868 8.11411C7.66352 8.93927 7.19995 10.0584 7.19995 11.2254C7.19995 12.3923 7.66352 13.5115 8.48868 14.3366C9.31384 15.1618 10.433 15.6254 11.6 15.6254C12.7669 15.6254 13.8861 15.1618 14.7112 14.3366C15.5364 13.5115 16 12.3923 16 11.2254C16 10.0584 15.5364 8.93927 14.7112 8.11411C13.8861 7.28895 12.7669 6.82538 11.6 6.82538Z" stroke="black" stroke-width="2" stroke-miterlimit="10"/>
<path d="M16.8798 5.06543C16.6464 5.06543 16.4225 5.15814 16.2575 5.32318C16.0925 5.48821 15.9998 5.71204 15.9998 5.94543C15.9998 6.17882 16.0925 6.40265 16.2575 6.56768C16.4225 6.73271 16.6464 6.82543 16.8798 6.82543C17.1131 6.82543 17.337 6.73271 17.502 6.56768C17.667 6.40265 17.7598 6.17882 17.7598 5.94543C17.7598 5.71204 17.667 5.48821 17.502 5.32318C17.337 5.15814 17.1131 5.06543 16.8798 5.06543Z" fill="black"/>
</g>
<defs>
<clipPath id="clip0_189_550">
<rect width="22" height="22" fill="white" transform="translate(0.599854 0.225403)"/>
</clipPath>
</defs>
</svg>
