<svg width="33" height="33" viewBox="0 0 33 33" fill="none" xmlns="http://www.w3.org/2000/svg">
<g clip-path="url(#clip0_14_3)">
<path d="M31.688 18.0793C32.2466 17.7798 32.9471 16.4855 32.9471 16.4855C32.9471 16.4855 31.4818 16.356 30.9233 16.6565C30.8683 16.6865 30.8238 16.7311 30.772 16.7663C30.8476 16.2451 30.8984 15.7155 30.9191 15.1777C31.2694 15.272 31.7741 15.1134 32.1399 14.7891C32.6155 14.3683 33 12.9486 33 12.9486C33 12.9486 31.545 13.16 31.0694 13.5808C31.0103 13.6326 30.9699 13.6979 30.9181 13.7569C30.8849 13.1994 30.8144 12.6522 30.7212 12.1133C31.0797 12.1154 31.5253 11.8449 31.8062 11.4522C32.173 10.9351 32.2248 9.4656 32.2248 9.4656C32.2248 9.4656 30.8549 10.0003 30.488 10.5174C30.4497 10.5713 30.4289 10.6335 30.3968 10.6915C30.2776 10.2677 30.1357 9.85317 29.9781 9.44591C30.3367 9.38684 30.7315 9.03553 30.9295 8.58888C31.1906 8.01063 30.9585 6.55877 30.9585 6.55877C30.9585 6.55877 29.717 7.34843 29.4579 7.92669C29.4279 7.99197 29.4175 8.06244 29.3968 8.13084C29.176 7.69456 28.9325 7.27071 28.6703 6.86137C28.9957 6.72561 29.3056 6.32975 29.4268 5.88103C29.5947 5.26857 29.1398 3.87164 29.1398 3.87164C29.1398 3.87164 28.0371 4.84472 27.8703 5.45718C27.8485 5.5349 27.8485 5.61573 27.8392 5.69553C27.4983 5.26339 27.1356 4.84991 26.749 4.45922C27.0444 4.25921 27.2651 3.7908 27.2827 3.31618C27.3055 2.683 26.5449 1.42493 26.5449 1.42493C26.5449 1.42493 25.693 2.62496 25.6682 3.25815C25.6661 3.33069 25.6682 3.40426 25.6765 3.47577C25.3583 3.21255 25.0308 2.96073 24.6909 2.72445C24.5987 2.41149 24.3479 2.07883 24.0028 1.87054C23.4608 1.5441 21.9914 1.60006 21.9914 1.60006C21.9914 1.60006 22.6256 2.92549 23.1696 3.25296C23.4101 3.39805 23.6836 3.47059 23.9386 3.48717C24.1977 3.66334 24.4547 3.84573 24.7003 4.03952C24.0391 4.10999 22.952 4.76493 22.952 4.76493C22.952 4.76493 24.15 5.61573 24.7842 5.63957C25.2702 5.65719 25.7614 5.46236 25.9739 5.17116C26.235 5.43334 26.4817 5.71004 26.7221 5.99295C26.0547 5.92662 24.8816 6.30591 24.8816 6.30591C24.8816 6.30591 25.8537 7.4075 26.4672 7.57434C26.9449 7.70388 27.4724 7.61787 27.7408 7.37019C27.9356 7.66968 28.1149 7.97643 28.2838 8.29147C27.6516 8.09871 26.3708 8.29976 26.3708 8.29976C26.3708 8.29976 27.1594 9.54021 27.7377 9.79928C28.1688 9.99307 28.6807 10.0024 28.9905 9.82934C29.0952 10.0998 29.1895 10.3755 29.2766 10.6542C28.6993 10.3361 27.3853 10.2853 27.3853 10.2853C27.3853 10.2853 27.9221 11.6543 28.4392 12.0211C28.8289 12.2978 29.3367 12.4077 29.6766 12.2906C29.7408 12.6584 29.7906 13.0315 29.8268 13.4098C29.3128 12.9838 28.1014 12.6533 28.1014 12.6533C28.1014 12.6533 28.3138 14.1082 28.7356 14.5818C29.0475 14.9342 29.5087 15.1528 29.8642 15.1228C29.8507 15.5 29.8268 15.8751 29.7833 16.2451C29.4102 15.7031 28.2506 15.0699 28.2506 15.0699C28.2506 15.0699 28.1211 16.5352 28.4227 17.0928C28.6641 17.5425 29.1087 17.8659 29.4807 17.8721C29.3989 18.1996 29.3118 18.527 29.2061 18.8452C28.9408 18.2565 27.7915 17.4431 27.7915 17.4431C27.7915 17.4431 27.4921 18.8835 27.7273 19.4721C27.8972 19.9063 28.2537 20.268 28.5936 20.3623C28.4548 20.6556 28.3128 20.9447 28.1543 21.2245C28.004 20.5986 27.0247 19.5851 27.0247 19.5851C27.0247 19.5851 26.462 20.9437 26.5811 21.5665C26.6661 22.0204 26.9428 22.437 27.2547 22.6007C27.0527 22.8743 26.8444 23.1427 26.6216 23.4008C26.6112 22.7614 25.8257 21.5499 25.8257 21.5499C25.8257 21.5499 25.0122 22.7748 25.008 23.407C25.006 23.8775 25.2008 24.3479 25.4837 24.5635C25.2391 24.7863 24.9873 25.0039 24.7282 25.2091C24.7293 25.1967 24.7334 25.1873 24.7345 25.1749C24.8101 24.5459 24.1583 23.2267 24.1583 23.2267C24.1583 23.2267 23.209 24.3479 23.1323 24.9759C23.0774 25.4091 23.2007 25.8506 23.4235 26.1096C23.1023 26.3055 22.7758 26.49 22.438 26.6579C22.4722 26.5667 22.5023 26.4734 22.5209 26.377C22.6422 25.7542 22.0857 24.3935 22.0857 24.3935C22.0857 24.3935 21.0577 25.4454 20.9374 26.0682C20.8535 26.4951 20.9457 26.9449 21.1489 27.2195C20.5571 27.4423 19.9426 27.6144 19.3167 27.7563C18.9488 26.5439 17.8337 25.6547 16.5021 25.6547C15.1694 25.6547 14.0554 26.5418 13.6875 27.7563C13.0616 27.6164 12.447 27.4423 11.8553 27.2195C12.0584 26.9439 12.1506 26.4951 12.0667 26.0682C11.9465 25.4443 10.9185 24.3935 10.9185 24.3935C10.9185 24.3935 10.3609 25.7542 10.4832 26.377C10.5019 26.4734 10.5319 26.5667 10.5661 26.6579C10.2283 26.49 9.90083 26.3055 9.58061 26.1096C9.80134 25.8506 9.9257 25.4091 9.87181 24.9759C9.79513 24.3479 8.84484 23.2267 8.84484 23.2267C8.84484 23.2267 8.19404 24.5438 8.26969 25.1749C8.27073 25.1873 8.27487 25.1967 8.27591 25.2091C8.0158 25.0039 7.76501 24.7873 7.52044 24.5635C7.80232 24.3479 7.99818 23.8764 7.99507 23.407C7.99196 22.7728 7.17743 21.5499 7.17743 21.5499C7.17743 21.5499 6.39295 22.7614 6.38258 23.4008C6.16082 23.1427 5.95148 22.8733 5.7494 22.6007C6.06133 22.437 6.33699 22.0204 6.423 21.5665C6.54321 20.9416 5.97946 19.5851 5.97946 19.5851C5.97946 19.5851 5.00016 20.5996 4.84989 21.2245C4.69238 20.9437 4.54937 20.6556 4.41154 20.3623C4.75248 20.267 5.1069 19.9063 5.27789 19.4721C5.51209 18.8814 5.2126 17.4431 5.2126 17.4431C5.2126 17.4431 4.0623 18.2555 3.79701 18.8452C3.69131 18.5249 3.60426 18.1996 3.52343 17.8721C3.89442 17.8659 4.339 17.5425 4.58045 17.0928C4.88202 16.5342 4.75352 15.0699 4.75352 15.0699C4.75352 15.0699 3.59182 15.7031 3.21979 16.2451C3.17627 15.8762 3.15243 15.501 3.13896 15.1228C3.49337 15.1528 3.95556 14.9331 4.26749 14.5818C4.68927 14.1082 4.90171 12.6533 4.90171 12.6533C4.90171 12.6533 3.69131 12.9838 3.17627 13.4098C3.21046 13.0325 3.26124 12.6584 3.32653 12.2906C3.6654 12.4077 4.17422 12.2978 4.56387 12.0211C5.08099 11.6553 5.61676 10.2853 5.61676 10.2853C5.61676 10.2853 4.30273 10.3361 3.72551 10.6542C3.81256 10.3744 3.90789 10.0998 4.01256 9.82934C4.32345 10.0024 4.83538 9.99204 5.26441 9.79928C5.84371 9.54125 6.63233 8.29976 6.63233 8.29976C6.63233 8.29976 5.34732 8.10182 4.71414 8.29457C4.88409 7.97954 5.06441 7.67176 5.2582 7.3733C5.52763 7.61994 6.05511 7.70699 6.53285 7.57745C7.1453 7.41061 8.11839 6.30902 8.11839 6.30902C8.11839 6.30902 6.94322 5.93077 6.27688 5.99709C6.51627 5.71418 6.76291 5.43749 7.02405 5.1753C7.23753 5.46651 7.72978 5.66029 8.21477 5.64371C8.84795 5.62091 10.0469 4.76907 10.0469 4.76907C10.0469 4.76907 8.95987 4.11413 8.29871 4.04366C8.54535 3.84987 8.80131 3.66852 9.06143 3.49235C9.31532 3.47577 9.58994 3.40323 9.83036 3.25815C10.3734 2.93067 11.0076 1.60524 11.0076 1.60524C11.0076 1.60524 9.53916 1.54825 8.99614 1.87468C8.65105 2.08194 8.40026 2.41563 8.307 2.72756C7.96709 2.96384 7.63962 3.21669 7.32251 3.47888C7.32873 3.40634 7.33184 3.3338 7.32976 3.26125C7.30593 2.62704 6.45409 1.42804 6.45409 1.42804C6.45409 1.42804 5.69137 2.68507 5.71521 3.31929C5.73282 3.79391 5.95252 4.26232 6.24786 4.46129C5.86236 4.85301 5.49965 5.2665 5.15871 5.69864C5.14835 5.61884 5.14835 5.53801 5.12762 5.46029C4.96078 4.84783 3.85815 3.87475 3.85815 3.87475C3.85815 3.87475 3.40218 5.27272 3.57006 5.88414C3.69234 6.33389 4.0022 6.72976 4.32863 6.86551C4.06645 7.27485 3.82292 7.69663 3.60219 8.13498C3.58146 8.06659 3.5711 7.99612 3.54208 7.93083C3.28197 7.35258 2.04048 6.56291 2.04048 6.56291C2.04048 6.56291 1.80835 8.01374 2.06949 8.59199C2.2695 9.0376 2.66433 9.38995 3.02082 9.44901C2.86434 9.85525 2.72237 10.2698 2.60215 10.6936C2.57003 10.6356 2.5493 10.5734 2.51096 10.5195C2.14411 10.0014 0.774118 9.46663 0.774118 9.46663C0.774118 9.46663 0.825933 10.9361 1.19382 11.4532C1.47362 11.8449 1.92027 12.1165 2.27883 12.1144C2.18349 12.6533 2.11406 13.2004 2.08089 13.758C2.03012 13.6989 1.98763 13.6336 1.92959 13.5818C1.45497 13.16 0 12.9507 0 12.9507C0 12.9507 0.383432 14.3704 0.859094 14.7912C1.22491 15.1155 1.72959 15.2741 2.07986 15.1798C2.10058 15.7176 2.14929 16.2461 2.22701 16.7684C2.1752 16.7332 2.13167 16.6886 2.07571 16.6586C1.51715 16.357 0.0518151 16.4876 0.0518151 16.4876C0.0518151 16.4876 0.752355 17.7809 1.31092 18.0824C1.71093 18.297 2.19282 18.3415 2.51511 18.212C2.61874 18.6203 2.73687 19.0193 2.8747 19.4141C2.82807 19.3903 2.78869 19.3561 2.73998 19.3374C2.15033 19.1042 0.710903 19.4058 0.710903 19.4058C0.710903 19.4058 1.55756 20.6069 2.14825 20.839C2.6063 21.0214 3.13896 20.9934 3.4343 20.781C3.62188 21.1789 3.82395 21.5675 4.04469 21.9458C3.99805 21.9323 3.95038 21.9178 3.90271 21.9095C3.2799 21.7903 1.9213 22.3531 1.9213 22.3531C1.9213 22.3531 2.9773 23.3769 3.60115 23.4961C4.09132 23.5894 4.61362 23.4588 4.86026 23.1883C5.12659 23.5521 5.40742 23.9013 5.70588 24.2402C5.66546 24.2381 5.62608 24.2319 5.58567 24.2329C4.95145 24.237 3.72758 25.0526 3.72758 25.0526C3.72758 25.0526 4.96078 25.8516 5.59499 25.8495C6.08413 25.8454 6.57015 25.6267 6.76809 25.3231C7.05411 25.5863 7.34738 25.8392 7.65309 26.0786C7.62615 26.0806 7.5992 26.0744 7.57226 26.0775C6.94219 26.1552 5.82194 27.1066 5.82194 27.1066C5.82194 27.1066 7.13908 27.7584 7.76812 27.6807C8.28938 27.6164 8.77644 27.3076 8.90183 26.9511C9.1464 27.1024 9.38682 27.2631 9.64072 27.4009C9.0179 27.66 8.17642 28.4817 8.17642 28.4817C8.17642 28.4817 9.53605 29.0341 10.1578 28.9108C10.6604 28.8134 11.1133 28.4838 11.2283 28.1315C11.9786 28.4289 12.761 28.6621 13.5652 28.832C13.674 30.3647 14.9393 31.5772 16.499 31.5772C18.0586 31.5772 19.3239 30.3647 19.4327 28.832C20.2369 28.6621 21.0193 28.4289 21.7706 28.1315C21.8836 28.4838 22.3375 28.8134 22.8401 28.9108C23.4629 29.0341 24.8236 28.4776 24.8236 28.4776C24.8236 28.4776 23.9821 27.6558 23.3593 27.3967C23.6132 27.2579 23.8536 27.1014 24.0982 26.947C24.2236 27.3024 24.7117 27.6133 25.2319 27.6765C25.8609 27.7543 27.1791 27.1024 27.1791 27.1024C27.1791 27.1024 26.0578 26.1511 25.4288 26.0723C25.4029 26.0703 25.3749 26.0765 25.3479 26.0744C25.6537 25.835 25.9469 25.5822 26.2329 25.3189C26.4309 25.6226 26.9169 25.8412 27.4071 25.8454C28.0403 25.8495 29.2745 25.0485 29.2745 25.0485C29.2745 25.0485 28.0506 24.2329 27.4164 24.2288C27.376 24.2288 27.3366 24.2339 27.2962 24.236C27.5946 23.9002 27.8755 23.5479 28.1418 23.1842C28.3885 23.4546 28.9108 23.5863 29.4009 23.4919C30.0248 23.3738 31.0808 22.3489 31.0808 22.3489C31.0808 22.3489 29.7222 21.7862 29.0994 21.9043C29.0517 21.9137 29.004 21.9271 28.9574 21.9416C29.1781 21.5655 29.3802 21.1768 29.5678 20.7768C29.8621 20.9893 30.3947 21.0162 30.8538 20.8349C31.4445 20.6027 32.2912 19.4006 32.2912 19.4006C32.2912 19.4006 30.8517 19.1001 30.2621 19.3333C30.2134 19.354 30.174 19.3861 30.1274 19.41C30.2652 19.0172 30.3823 18.6151 30.487 18.2078C30.8061 18.3384 31.287 18.2939 31.688 18.0793Z" fill="#57C76E"/>
</g>
<defs>
<clipPath id="clip0_14_3">
<rect width="33" height="33" fill="white"/>
</clipPath>
</defs>
</svg>
