<svg width="60" height="55" viewBox="0 0 60 55" fill="none" xmlns="http://www.w3.org/2000/svg">
<path d="M57.1544 30.3266C58.153 29.7902 59.4055 27.4722 59.4055 27.4722C59.4055 27.4722 56.7857 27.2402 55.787 27.7784C55.6888 27.8322 55.6092 27.912 55.5165 27.9751C55.6518 27.0416 55.7426 26.0932 55.7796 25.13C56.4059 25.2989 57.3082 25.0149 57.9622 24.434C58.8126 23.6805 59.5 21.1379 59.5 21.1379C59.5 21.1379 56.8987 21.5165 56.0483 22.27C55.9427 22.3628 55.8704 22.4797 55.7778 22.5855C55.7185 21.587 55.5925 20.6071 55.4257 19.642C56.0668 19.6457 56.8635 19.1613 57.3656 18.4579C58.0215 17.5318 58.1141 14.9001 58.1141 14.9001C58.1141 14.9001 55.6647 15.8578 55.0089 16.7839C54.9403 16.8804 54.9032 16.9918 54.8458 17.0957C54.6327 16.3366 54.3789 15.5942 54.0973 14.8649C54.7383 14.7591 55.4443 14.1299 55.7981 13.33C56.265 12.2944 55.85 9.69425 55.85 9.69425C55.85 9.69425 53.6304 11.1085 53.1672 12.1441C53.1135 12.261 53.0949 12.3872 53.0579 12.5097C52.6632 11.7283 52.2278 10.9693 51.7591 10.2362C52.3409 9.99306 52.8948 9.28409 53.1116 8.48048C53.4118 7.38363 52.5984 4.88184 52.5984 4.88184C52.5984 4.88184 50.627 6.62455 50.3287 7.7214C50.2898 7.8606 50.2898 8.00536 50.2731 8.14827C49.6636 7.37435 49.0151 6.63383 48.324 5.93415C48.8521 5.57596 49.2467 4.73708 49.2782 3.88706C49.319 2.75309 47.959 0.5 47.959 0.5C47.959 0.5 46.436 2.64916 46.3916 3.78313C46.3879 3.91305 46.3916 4.04482 46.4064 4.17288C45.8376 3.70147 45.2521 3.25048 44.6444 2.82733C44.4795 2.26684 44.0311 1.67109 43.4141 1.29805C42.4451 0.713431 39.8179 0.813651 39.8179 0.813651C39.8179 0.813651 40.9518 3.18738 41.9245 3.77385C42.3544 4.03368 42.8435 4.1636 43.2993 4.19329C43.7625 4.5088 44.222 4.83544 44.6611 5.1825C43.479 5.3087 41.5354 6.48165 41.5354 6.48165C41.5354 6.48165 43.6772 8.00536 44.8111 8.04805C45.6801 8.0796 46.5583 7.73068 46.9381 7.20917C47.405 7.67872 47.846 8.17425 48.2758 8.68092C47.0827 8.56214 44.9853 9.24141 44.9853 9.24141C44.9853 9.24141 46.7232 11.2143 47.8201 11.5131C48.6742 11.7451 49.6173 11.591 50.0971 11.1474C50.4455 11.6838 50.766 12.2332 51.068 12.7974C49.9378 12.4522 47.6478 12.8122 47.6478 12.8122C47.6478 12.8122 49.0577 15.0338 50.0916 15.4977C50.8623 15.8448 51.7776 15.8615 52.3316 15.5516C52.5187 16.0359 52.6873 16.5296 52.843 17.0289C51.811 16.4591 49.4616 16.3682 49.4616 16.3682C49.4616 16.3682 50.4214 18.8198 51.3459 19.4768C52.0426 19.9724 52.9504 20.1691 53.5581 19.9594C53.673 20.6182 53.7619 21.2864 53.8268 21.9638C52.9078 21.201 50.7419 20.6089 50.7419 20.6089C50.7419 20.6089 51.1217 23.2147 51.8758 24.0628C52.4335 24.6938 53.258 25.0854 53.8935 25.0316C53.8694 25.7072 53.8268 26.379 53.749 27.0416C53.082 26.0709 51.0087 24.937 51.0087 24.937C51.0087 24.937 50.7771 27.5612 51.3163 28.5597C51.748 29.3652 52.5428 29.9443 53.208 29.9554C53.0616 30.5419 52.906 31.1283 52.717 31.6981C52.2427 30.6439 50.1879 29.187 50.1879 29.187C50.1879 29.187 49.6525 31.7668 50.073 32.8209C50.3769 33.5986 51.0143 34.2463 51.622 34.4152C51.3737 34.9404 51.1199 35.4582 50.8364 35.9593C50.5677 34.8383 48.8169 33.0232 48.8169 33.0232C48.8169 33.0232 47.8108 35.4564 48.0239 36.5718C48.1758 37.3847 48.6705 38.1307 49.2282 38.424C48.8669 38.9139 48.4945 39.3946 48.0961 39.8567C48.0776 38.7116 46.6732 36.5421 46.6732 36.5421C46.6732 36.5421 45.2188 38.7358 45.2113 39.8679C45.2076 40.7105 45.556 41.5531 46.0618 41.9391C45.6245 42.3381 45.1743 42.7279 44.7111 43.0953C44.7129 43.0731 44.7204 43.0564 44.7222 43.0341C44.8575 41.9075 43.6921 39.545 43.6921 39.545C43.6921 39.545 41.9949 41.5531 41.8578 42.6778C41.7596 43.4535 41.9801 44.2442 42.3784 44.7081C41.8041 45.0589 41.2205 45.3893 40.6164 45.6899C40.6776 45.5266 40.7313 45.3596 40.7647 45.187C40.9814 44.0716 39.9865 41.6347 39.9865 41.6347C39.9865 41.6347 38.1485 43.5185 37.9336 44.6339C37.7835 45.3985 37.9484 46.204 38.3116 46.6958C37.2536 47.0949 36.1549 47.4029 35.0359 47.6572C34.3781 45.4858 32.3845 43.8934 30.0037 43.8934C27.621 43.8934 25.6293 45.4821 24.9715 47.6572C23.8525 47.4067 22.7538 47.0949 21.6958 46.6958C22.059 46.2022 22.2239 45.3985 22.0738 44.6339C21.8589 43.5166 20.0209 41.6347 20.0209 41.6347C20.0209 41.6347 19.0241 44.0716 19.2427 45.187C19.2761 45.3596 19.3298 45.5266 19.391 45.6899C18.787 45.3893 18.2015 45.0589 17.629 44.7081C18.0236 44.2442 18.2459 43.4535 18.1496 42.6778C18.0125 41.5531 16.3135 39.545 16.3135 39.545C16.3135 39.545 15.15 41.9038 15.2852 43.0341C15.2871 43.0564 15.2945 43.0731 15.2963 43.0953C14.8313 42.7279 14.3829 42.34 13.9456 41.9391C14.4496 41.5531 14.7998 40.7086 14.7942 39.8679C14.7887 38.7321 13.3324 36.5421 13.3324 36.5421C13.3324 36.5421 11.9298 38.7116 11.9113 39.8567C11.5148 39.3946 11.1405 38.9121 10.7792 38.424C11.3369 38.1307 11.8298 37.3847 11.9835 36.5718C12.1985 35.4526 11.1906 33.0232 11.1906 33.0232C11.1906 33.0232 9.43967 34.8402 9.17102 35.9593C8.8894 35.4564 8.63371 34.9404 8.38729 34.4152C8.99686 34.2444 9.63051 33.5986 9.93622 32.8209C10.3549 31.7631 9.8195 29.187 9.8195 29.187C9.8195 29.187 7.76291 30.6421 7.28859 31.6981C7.09961 31.1246 6.94398 30.5419 6.79946 29.9554C7.46276 29.9443 8.2576 29.3652 8.6893 28.5597C9.22846 27.5594 8.99871 24.937 8.99871 24.937C8.99871 24.937 6.92174 26.0709 6.2566 27.0416C6.17878 26.3809 6.13616 25.709 6.11208 25.0316C6.74573 25.0854 7.57207 24.692 8.12976 24.0628C8.88384 23.2147 9.26366 20.6089 9.26366 20.6089C9.26366 20.6089 7.09961 21.201 6.17878 21.9638C6.23992 21.2882 6.33071 20.6182 6.44743 19.9594C7.05329 20.1691 7.96301 19.9724 8.65965 19.4768C9.58419 18.8217 10.5421 16.3682 10.5421 16.3682C10.5421 16.3682 8.19275 16.4591 7.16075 17.0289C7.31639 16.5278 7.48684 16.0359 7.67397 15.5516C8.22981 15.8615 9.14508 15.8429 9.91213 15.4977C10.9478 15.0356 12.3578 12.8122 12.3578 12.8122C12.3578 12.8122 10.0604 12.4577 8.92831 12.8029C9.23216 12.2387 9.55455 11.6875 9.90102 11.153C10.3827 11.5947 11.3258 11.7506 12.1799 11.5186C13.2749 11.2198 15.0147 9.24698 15.0147 9.24698C15.0147 9.24698 12.9136 8.56956 11.7223 8.68834C12.1503 8.18167 12.5913 7.68614 13.0582 7.21659C13.4398 7.73811 14.3199 8.08517 15.187 8.05547C16.3191 8.01464 18.4627 6.48907 18.4627 6.48907C18.4627 6.48907 16.5192 5.31613 15.3371 5.18992C15.778 4.84286 16.2357 4.51808 16.7007 4.20257C17.1547 4.17288 17.6456 4.04296 18.0755 3.78313C19.0464 3.19666 20.1803 0.822931 20.1803 0.822931C20.1803 0.822931 17.5549 0.720855 16.584 1.30547C15.967 1.67666 15.5187 2.27426 15.3519 2.8329C14.7442 3.25605 14.1587 3.70889 13.5918 4.17844C13.6029 4.04853 13.6084 3.91861 13.6047 3.7887C13.5621 2.65287 12.0391 0.505568 12.0391 0.505568C12.0391 0.505568 10.6755 2.75681 10.7181 3.89263C10.7496 4.74265 11.1424 5.58152 11.6704 5.93786C10.9812 6.6394 10.3327 7.37991 9.72315 8.15384C9.70462 8.01093 9.70462 7.86617 9.66757 7.72697C9.36927 6.63012 7.39791 4.88741 7.39791 4.88741C7.39791 4.88741 6.58268 7.39105 6.88284 8.48605C7.10146 9.29152 7.65545 10.0005 8.23907 10.2436C7.77032 10.9767 7.33491 11.7321 6.94027 12.5171C6.90322 12.3946 6.88469 12.2684 6.83281 12.1515C6.36776 11.1159 4.14813 9.70168 4.14813 9.70168C4.14813 9.70168 3.73311 12.3 4.20001 13.3356C4.55759 14.1336 5.2635 14.7646 5.90086 14.8704C5.62109 15.598 5.36726 16.3403 5.15234 17.0994C5.0949 16.9955 5.05784 16.8841 4.98929 16.7876C4.33341 15.8596 1.88403 14.902 1.88403 14.902C1.88403 14.902 1.97667 17.5337 2.63441 18.4598C3.13466 19.1613 3.93321 19.6476 4.57427 19.6439C4.40381 20.6089 4.27968 21.5889 4.22039 22.5874C4.1296 22.4816 4.05364 22.3647 3.94988 22.2719C3.10131 21.5165 0.5 21.1416 0.5 21.1416C0.5 21.1416 1.18553 23.6842 2.03596 24.4377C2.68999 25.0186 3.59229 25.3026 4.21853 25.1337C4.25559 26.0969 4.34267 27.0434 4.48163 27.9788C4.38899 27.9157 4.31117 27.8359 4.21112 27.7821C3.21247 27.242 0.592639 27.4759 0.592639 27.4759C0.592639 27.4759 1.84512 29.7921 2.84377 30.3321C3.55894 30.7163 4.42049 30.7961 4.9967 30.5641C5.18198 31.2954 5.3932 32.0099 5.63962 32.717C5.55624 32.6743 5.48584 32.6131 5.39876 32.5797C4.34452 32.1621 1.77101 32.7022 1.77101 32.7022C1.77101 32.7022 3.28473 34.8532 4.34082 35.2689C5.15975 35.5955 6.11208 35.5454 6.64012 35.165C6.97547 35.8776 7.33677 36.5736 7.73141 37.251C7.64803 37.2269 7.56281 37.2009 7.47758 37.1861C6.36406 36.9726 3.93506 37.9804 3.93506 37.9804C3.93506 37.9804 5.82304 39.8141 6.93842 40.0275C7.81478 40.1945 8.74859 39.9607 9.18955 39.4763C9.66571 40.1277 10.1678 40.7532 10.7014 41.3601C10.6292 41.3563 10.5588 41.3452 10.4865 41.3471C9.35259 41.3545 7.16446 42.8151 7.16446 42.8151C7.16446 42.8151 9.36927 44.246 10.5032 44.2423C11.3777 44.2349 12.2466 43.8433 12.6005 43.2995C13.1119 43.7709 13.6362 44.2237 14.1828 44.6525C14.1346 44.6562 14.0865 44.645 14.0383 44.6506C12.9118 44.7898 10.9089 46.4935 10.9089 46.4935C10.9089 46.4935 13.2638 47.6609 14.3885 47.5217C15.3204 47.4067 16.1912 46.8536 16.4154 46.2152C16.8527 46.4861 17.2825 46.7738 17.7364 47.0206C16.6229 47.4846 15.1185 48.9564 15.1185 48.9564C15.1185 48.9564 17.5493 49.9456 18.661 49.7247C19.5596 49.5503 20.3692 48.9601 20.5749 48.329C21.9163 48.8617 23.3152 49.2793 24.7529 49.5837C24.9475 52.3286 27.2097 54.5 29.9981 54.5C32.7866 54.5 35.0488 52.3286 35.2434 49.5837C36.6811 49.2793 38.08 48.8617 39.4233 48.329C39.6252 48.9601 40.4367 49.5503 41.3353 49.7247C42.4488 49.9456 44.8815 48.9489 44.8815 48.9489C44.8815 48.9489 43.3771 47.4772 42.2636 47.0132C42.7175 46.7645 43.1473 46.4843 43.5846 46.2077C43.8088 46.8443 44.6814 47.4011 45.6115 47.5143C46.7362 47.6535 49.0929 46.4861 49.0929 46.4861C49.0929 46.4861 47.0882 44.7824 45.9636 44.6413C45.9173 44.6376 45.8672 44.6487 45.8191 44.645C46.3656 44.2163 46.89 43.7635 47.4013 43.2921C47.7552 43.8359 48.6242 44.2275 49.5005 44.2349C50.6326 44.2423 52.8393 42.8077 52.8393 42.8077C52.8393 42.8077 50.6511 41.3471 49.5172 41.3396C49.445 41.3396 49.3745 41.3489 49.3023 41.3526C49.8359 40.7513 50.338 40.1203 50.8142 39.4689C51.2551 39.9533 52.1889 40.189 53.0653 40.0201C54.1807 39.8085 56.0687 37.973 56.0687 37.973C56.0687 37.973 53.6397 36.9652 52.5261 37.1768C52.4409 37.1935 52.3557 37.2176 52.2723 37.2436C52.6669 36.5699 53.0282 35.8739 53.3636 35.1575C53.8898 35.538 54.8421 35.5863 55.6629 35.2615C56.719 34.8458 58.2327 32.6929 58.2327 32.6929C58.2327 32.6929 55.6592 32.1547 54.6049 32.5722C54.5179 32.6094 54.4475 32.6669 54.3641 32.7096C54.6105 32.0062 54.8199 31.2861 55.007 30.5567C55.5777 30.7906 56.4373 30.7107 57.1544 30.3266Z" fill="#C7D4DE"/>
</svg>
