<svg width="33" height="32" viewBox="0 0 33 32" fill="none" xmlns="http://www.w3.org/2000/svg">
<path d="M15.9028 0.390379C16.0678 -0.0353653 16.6702 -0.0353638 16.8352 0.390381L20.802 10.6251C20.8729 10.8081 21.0444 10.9327 21.2404 10.9436L32.2 11.5535C32.6559 11.5789 32.842 12.1518 32.4881 12.4403L23.9801 19.3756C23.8279 19.4996 23.7624 19.7012 23.8126 19.891L26.6193 30.5026C26.736 30.944 26.2487 31.2981 25.8649 31.0507L16.64 25.1022C16.475 24.9958 16.263 24.9958 16.0981 25.1022L6.87309 31.0507C6.48935 31.2981 6.002 30.944 6.11875 30.5026L8.9254 19.891C8.97559 19.7012 8.91009 19.4996 8.75794 19.3756L0.24994 12.4403C-0.103977 12.1518 0.0821761 11.5789 0.538074 11.5535L11.4976 10.9436C11.6936 10.9327 11.8651 10.8081 11.9361 10.6251L15.9028 0.390379Z" fill="#57C76E"/>
</svg>
