<svg width="82" height="79" viewBox="0 0 82 79" fill="none" xmlns="http://www.w3.org/2000/svg">
<path d="M39.6453 60.3495L40.7292 62.0303L39.6453 60.3495L19.1916 73.5385L25.4145 50.0102C25.6655 49.0613 25.338 48.0533 24.5772 47.4332L5.71313 32.0561L30.0129 30.7039C30.9929 30.6493 31.8503 30.0264 32.205 29.1112L41.0001 6.41862L49.7953 29.1112L51.6601 28.3884L49.7953 29.1112C50.15 30.0264 51.0074 30.6493 51.9874 30.7039L76.2872 32.0561L57.4231 47.4332C56.6623 48.0533 56.3348 49.0613 56.5858 50.0102L62.8087 73.5385L42.3549 60.3495L41.2711 62.0303L42.3549 60.3495C41.5301 59.8176 40.4702 59.8176 39.6453 60.3495Z" fill="#FED73A" stroke="#FFF1B5" stroke-width="4"/>
<path d="M32.46 47.7245L34.877 39.7045H37.3232L33.6099 50.3685H31.3174L27.6187 39.7045H30.0576L32.46 47.7245ZM40.6704 50.3685H38.4731V39.7045H40.6704V50.3685ZM44.9111 46.6112V50.3685H42.7139V39.7045H46.874C47.6748 39.7045 48.3779 39.851 48.9834 40.1439C49.5938 40.4369 50.0625 40.8544 50.3896 41.3964C50.7168 41.9335 50.8804 42.5463 50.8804 43.2347C50.8804 44.2797 50.5215 45.1049 49.8037 45.7103C49.0908 46.3109 48.1021 46.6112 46.8374 46.6112H44.9111ZM44.9111 44.8314H46.874C47.4551 44.8314 47.897 44.6947 48.1997 44.4213C48.5073 44.1478 48.6611 43.7572 48.6611 43.2494C48.6611 42.7269 48.5073 42.3046 48.1997 41.9823C47.8921 41.66 47.4673 41.494 46.9253 41.4843H44.9111V44.8314Z" fill="#FFF1B5"/>
</svg>
