<svg width="20" height="26" viewBox="0 0 20 26" fill="none" xmlns="http://www.w3.org/2000/svg">
<g clip-path="url(#clip0_187_441)">
<path d="M9.62142 0.825684C4.39386 0.831036 0.158197 5.064 0.155518 10.2855C0.155518 15.3658 8.88577 25.2101 9.25603 25.6237C9.4355 25.824 9.74352 25.841 9.94399 25.6617C9.95733 25.6498 9.96999 25.6371 9.98199 25.6237C10.3522 25.2052 19.0825 15.3658 19.0825 10.2855C19.0798 5.06589 14.847 0.833713 9.62142 0.825684ZM9.62142 24.558C7.95526 22.6116 1.12988 14.4413 1.12988 10.2807C1.12988 5.5963 4.93164 1.79892 9.62142 1.79892C14.3112 1.79892 18.113 5.5963 18.113 10.2807C18.113 14.4413 11.2876 22.6213 9.62142 24.558Z" fill="#57C76E"/>
<path d="M9.79188 5.57019C6.95869 5.57287 4.66407 7.86922 4.66675 10.6991C4.66943 13.5291 6.96843 15.821 9.80162 15.8184C12.6329 15.8157 14.9267 13.5223 14.9267 10.6943C14.9214 7.86466 12.6248 5.57287 9.79188 5.57019ZM9.79188 14.85C7.49678 14.85 5.63624 12.9916 5.63624 10.6991C5.63624 8.40669 7.49678 6.54829 9.79188 6.54829C12.087 6.54829 13.9475 8.40669 13.9475 10.6991C13.9448 12.9905 12.0858 14.8473 9.79188 14.85Z" fill="#57C76E"/>
</g>
<defs>
<clipPath id="clip0_187_441">
<rect width="19" height="25" fill="white" transform="translate(0.108398 0.825684)"/>
</clipPath>
</defs>
</svg>
