<svg width="198" height="198" viewBox="0 0 198 198" fill="none" xmlns="http://www.w3.org/2000/svg">
<path d="M145.706 89.4192C145.706 131.113 129.168 164.468 108.495 164.468H90.3033C69.6308 164.468 53.0928 131.113 53.0928 89.4192C53.0928 47.7257 69.6308 14.3708 90.3033 14.3708H108.495C128.754 14.3708 145.706 47.7257 145.706 89.4192Z" fill="#00233F"/>
<path d="M116.564 110.577H78.2417V187.222H116.564V110.577Z" fill="#F9BDA0"/>
<path d="M116.565 177.641H106.675L97.4033 110.577H116.565V177.641Z" fill="#E28F71"/>
<path d="M133.73 68.9957C133.73 99.9766 116.446 128.141 98.2016 128.141C79.9573 128.141 62.6733 99.9766 62.6733 68.9957C62.6733 38.0147 79.9573 32.7339 98.2016 32.7339C116.446 32.7339 133.73 38.0147 133.73 68.9957Z" fill="#FCCCB9"/>
<path d="M99 30.3386C117.244 30.3386 134.528 35.752 134.528 67.5107C134.528 99.2695 117.244 128.141 99 128.141" fill="#F9BDA0"/>
<path d="M111.774 29.2211C111.774 32.734 108.9 35.6082 105.387 35.6082H95.8065C92.2936 35.6082 89.4194 32.734 89.4194 29.2211C89.4194 25.7082 92.2936 22.834 95.8065 22.834H105.387C108.9 22.834 111.774 25.7082 111.774 29.2211Z" fill="#00233F"/>
<path d="M106.026 194.162L198 193.426L196.084 172.574L125.826 150.496L99 187.709L72.1742 150.496L1.91613 172.574L0 193.426L91.9742 194.162V194.407H99H106.026V194.162Z" fill="#EA80FC"/>
</svg>
